Wavefont-wmax,rmax,amax,smin.ufo
<glyph name="_9" format="2">
	<unicode hex="0109"/>
	<advance width="25"/>
	<outline>
		<component base="cap" yOffset="910"/>
		<component base="cap" yOffset="744"/>
		<contour>
			<point x="0" y="1038" type="line"/>
			<point x="0" y="872" type="line"/>
			<point x="256" y="872" type="line"/>
			<point x="256" y="1038" type="line"/>
		</contour>
	</outline>
</glyph>
<glyph name="_10" format="2">
	<unicode hex="010A"/>
	<unicode hex="0031"/>
	<unicode hex="0066"/>
	<advance width="25"/>
	<outline>
		<component base="cap" yOffset="900"/>
		<component base="cap" yOffset="744"/>
		<contour>
			<point x="0" y="1028" type="line"/>
			<point x="0" y="872" type="line"/>
			<point x="256" y="872" type="line"/>
			<point x="256" y="1028" type="line"/>
		</contour>
	</outline>
</glyph>
<glyph name="_13" format="2">
	<unicode hex="010D"/>
	<advance width="25"/>
	<outline>
		<component base="cap" yOffset="870"/>
		<component base="cap" yOffset="744"/>
		<contour>
			<point x="0" y="998" type="line"/>
			<point x="0" y="872" type="line"/>
			<point x="256" y="872" type="line"/>
			<point x="256" y="998" type="line"/>
		</contour>
	</outline>
</glyph>
<glyph name="_15" format="2">
	<unicode hex="010F"/>
	<advance width="25"/>
	<outline>
		<component base="cap" yOffset="850"/>
		<component base="cap" yOffset="744"/>
		<contour>
			<point x="0" y="978" type="line"/>
			<point x="0" y="872" type="line"/>
			<point x="256" y="872" type="line"/>
			<point x="256" y="978" type="line"/>
		</contour>
	</outline>
</glyph>
<glyph name="_16" format="2">
	<unicode hex="0110"/>
	<unicode hex="0069"/>
	<advance width="25"/>
	<outline>
		<component base="cap" yOffset="840"/>
		<component base="cap" yOffset="744"/>
		<contour>
			<point x="0" y="968" type="line"/>
			<point x="0" y="872" type="line"/>
			<point x="256" y="872" type="line"/>
			<point x="256" y="968" type="line"/>
		</contour>
	</outline>
</glyph>
<glyph name="_21" format="2">
	<unicode hex="0115"/>
	<advance width="25"/>
	<outline>
		<component base="cap" yOffset="790"/>
		<component base="cap" yOffset="744"/>
		<contour>
			<point x="0" y="918" type="line"/>
			<point x="0" y="872" type="line"/>
			<point x="256" y="872" type="line"/>
			<point x="256" y="918" type="line"/>
		</contour>
	</outline>
</glyph>
<glyph name="_23" format="2">
	<unicode hex="0117"/>
	<advance width="25"/>
	<outline>
		<component base="cap" yOffset="770"/>
		<component base="cap" yOffset="744"/>
		<contour>
			<point x="0" y="898" type="line"/>
			<point x="0" y="872" type="line"/>
			<point x="256" y="872" type="line"/>
			<point x="256" y="898" type="line"/>
		</contour>
	</outline>
</glyph>
<glyph name="_26" format="2">
	<unicode hex="011A"/>
	<unicode hex="006E"/>
	<advance width="25"/>
	<outline>
		<component base="cap" yOffset="740"/>
		<component base="cap" yOffset="744"/>
		<contour>
			<point x="0" y="868" type="line"/>
			<point x="0" y="872" type="line"/>
			<point x="256" y="872" type="line"/>
			<point x="256" y="868" type="line"/>
		</contour>
	</outline>
</glyph>
<glyph name="_27" format="2">
	<unicode hex="011B"/>
	<advance width="25"/>
	<outline>
		<component base="cap" yOffset="730"/>
		<component base="cap" yOffset="744"/>
		<contour>
			<point x="0" y="858" type="line"/>
			<point x="0" y="872" type="line"/>
			<point x="256" y="872" type="line"/>
			<point x="256" y="858" type="line"/>
		</contour>
	</outline>
</glyph>
<glyph name="_31" format="2">
	<unicode hex="011F"/>
	<advance width="25"/>
	<outline>
		<component base="cap" yOffset="690"/>
		<component base="cap" yOffset="744"/>
		<contour>
			<point x="0" y="818" type="line"/>
			<point x="0" y="872" type="line"/>
			<point x="256" y="872" type="line"/>
			<point x="256" y="818" type="line"/>
		</contour>
	</outline>
</glyph>
<glyph name="_39" format="2">
	<unicode hex="0127"/>
	<advance width="25"/>
	<outline>
		<component base="cap" yOffset="610"/>
		<component base="cap" yOffset="744"/>
		<contour>
			<point x="0" y="738" type="line"/>
			<point x="0" y="872" type="line"/>
			<point x="256" y="872" type="line"/>
			<point x="256" y="738" type="line"/>
		</contour>
	</outline>
</glyph>
<glyph name="_41" format="2">
	<unicode hex="0129"/>
	<advance width="25"/>
	<outline>
		<component base="cap" yOffset="590"/>
		<component base="cap" yOffset="744"/>
		<contour>
			<point x="0" y="718" type="line"/>
			<point x="0" y="872" type="line"/>
			<point x="256" y="872" type="line"/>
			<point x="256" y="718" type="line"/>
		</contour>
	</outline>
</glyph>
<glyph name="_55" format="2">
	<unicode hex="0137"/>
	<advance width="25"/>
	<outline>
		<component base="cap" yOffset="450"/>
		<component base="cap" yOffset="744"/>
		<contour>
			<point x="0" y="578" type="line"/>
			<point x="0" y="872" type="line"/>
			<point x="256" y="872" type="line"/>
			<point x="256" y="578" type="line"/>
		</contour>
	</outline>
</glyph>
<glyph name="_56" format="2">
	<unicode hex="0138"/>
	<unicode hex="2585"/>
	<unicode hex="0043"/>
	<advance width="25"/>
	<outline>
		<component base="cap" yOffset="440"/>
		<component base="cap" yOffset="744"/>
		<contour>
			<point x="0" y="568" type="line"/>
			<point x="0" y="872" type="line"/>
			<point x="256" y="872" type="line"/>
			<point x="256" y="568" type="line"/>
		</contour>
	</outline>
</glyph>
<glyph name="_60" format="2">
	<unicode hex="013C"/>
	<unicode hex="0036"/>
	<unicode hex="0045"/>
	<advance width="25"/>
	<outline>
		<component base="cap" yOffset="400"/>
		<component base="cap" yOffset="744"/>
		<contour>
			<point x="0" y="528" type="line"/>
			<point x="0" y="872" type="line"/>
			<point x="256" y="872" type="line"/>
			<point x="256" y="528" type="line"/>
		</contour>
	</outline>
</glyph>
<glyph name="_64" format="2">
	<unicode hex="0140"/>
	<unicode hex="0047"/>
	<advance width="25"/>
	<outline>
		<component base="cap" yOffset="360"/>
		<component base="cap" yOffset="744"/>
		<contour>
			<point x="0" y="488" type="line"/>
			<point x="0" y="872" type="line"/>
			<point x="256" y="872" type="line"/>
			<point x="256" y="488" type="line"/>
		</contour>
	</outline>
</glyph>
<glyph name="_65" format="2">
	<unicode hex="0141"/>
	<advance width="25"/>
	<outline>
		<component base="cap" yOffset="350"/>
		<component base="cap" yOffset="744"/>
		<contour>
			<point x="0" y="478" type="line"/>
			<point x="0" y="872" type="line"/>
			<point x="256" y="872" type="line"/>
			<point x="256" y="478" type="line"/>
		</contour>
	</outline>
</glyph>
<glyph name="_72" format="2">
	<unicode hex="0148"/>
	<unicode hex="2586"/>
	<unicode hex="004B"/>
	<advance width="25"/>
	<outline>
		<component base="cap" yOffset="280"/>
		<component base="cap" yOffset="744"/>
		<contour>
			<point x="0" y="408" type="line"/>
			<point x="0" y="872" type="line"/>
			<point x="256" y="872" type="line"/>
			<point x="256" y="408" type="line"/>
		</contour>
	</outline>
</glyph>
<glyph name="_83" format="2">
	<unicode hex="0153"/>
	<advance width="25"/>
	<outline>
		<component base="cap" yOffset="170"/>
		<component base="cap" yOffset="744"/>
		<contour>
			<point x="0" y="298" type="line"/>
			<point x="0" y="872" type="line"/>
			<point x="256" y="872" type="line"/>
			<point x="256" y="298" type="line"/>
		</contour>
	</outline>
</glyph>
<glyph name="_84" format="2">
	<unicode hex="0154"/>
	<unicode hex="0051"/>
	<advance width="25"/>
	<outline>
		<component base="cap" yOffset="160"/>
		<component base="cap" yOffset="744"/>
		<contour>
			<point x="0" y="288" type="line"/>
			<point x="0" y="872" type="line"/>
			<point x="256" y="872" type="line"/>
			<point x="256" y="288" type="line"/>
		</contour>
	</outline>
</glyph>
<glyph name="_86" format="2">
	<unicode hex="0156"/>
	<unicode hex="2587"/>
	<unicode hex="0052"/>
	<advance width="25"/>
	<outline>
		<component base="cap" yOffset="140"/>
		<component base="cap" yOffset="744"/>
		<contour>
			<point x="0" y="268" type="line"/>
			<point x="0" y="872" type="line"/>
			<point x="256" y="872" type="line"/>
			<point x="256" y="268" type="line"/>
		</contour>
	</outline>
</glyph>
<glyph name="_88" format="2">
	<unicode hex="0158"/>
	<unicode hex="0053"/>
	<advance width="25"/>
	<outline>
		<component base="cap" yOffset="120"/>
		<component base="cap" yOffset="744"/>
		<contour>
			<point x="0" y="248" type="line"/>
			<point x="0" y="872" type="line"/>
			<point x="256" y="872" type="line"/>
			<point x="256" y="248" type="line"/>
		</contour>
	</outline>
</glyph>
<glyph name="_92" format="2">
	<unicode hex="015C"/>
	<unicode hex="0055"/>
	<advance width="25"/>
	<outline>
		<component base="cap" yOffset="80"/>
		<component base="cap" yOffset="744"/>
		<contour>
			<point x="0" y="208" type="line"/>
			<point x="0" y="872" type="line"/>
			<point x="256" y="872" type="line"/>
			<point x="256" y="208" type="line"/>
		</contour>
	</outline>
</glyph>
<glyph name="_93" format="2">
	<unicode hex="015D"/>
	<advance width="25"/>
	<outline>
		<component base="cap" yOffset="70"/>
		<component base="cap" yOffset="744"/>
		<contour>
			<point x="0" y="198" type="line"/>
			<point x="0" y="872" type="line"/>
			<point x="256" y="872" type="line"/>
			<point x="256" y="198" type="line"/>
		</contour>
	</outline>
</glyph>
<glyph name="_94" format="2">
	<unicode hex="015E"/>
	<unicode hex="0056"/>
	<advance width="25"/>
	<outline>
		<component base="cap" yOffset="60"/>
		<component base="cap" yOffset="744"/>
		<contour>
			<point x="0" y="188" type="line"/>
			<point x="0" y="872" type="line"/>
			<point x="256" y="872" type="line"/>
			<point x="256" y="188" type="line"/>
		</contour>
	</outline>
</glyph>
<glyph name="_99" format="2">
	<unicode hex="0163"/>
	<unicode hex="0059"/>
	<advance width="25"/>
	<outline>
		<component base="cap" yOffset="10"/>
		<component base="cap" yOffset="744"/>
		<contour>
			<point x="0" y="138" type="line"/>
			<point x="0" y="872" type="line"/>
			<point x="256" y="872" type="line"/>
			<point x="256" y="138" type="line"/>
		</contour>
	</outline>
</glyph>
<glyph name="_101" format="2">
	<unicode hex="0165"/>
	<advance width="25"/>
	<outline>
		<component base="cap" yOffset="-10"/>
		<component base="cap" yOffset="744"/>
		<contour>
			<point x="0" y="118" type="line"/>
			<point x="0" y="872" type="line"/>
			<point x="256" y="872" type="line"/>
			<point x="256" y="118" type="line"/>
		</contour>
	</outline>
</glyph>
<glyph name="_102" format="2">
	<unicode hex="0166"/>
	<advance width="25"/>
	<outline>
		<component base="cap" yOffset="-20"/>
		<component base="cap" yOffset="744"/>
		<contour>
			<point x="0" y="108" type="line"/>
			<point x="0" y="872" type="line"/>
			<point x="256" y="872" type="line"/>
			<point x="256" y="108" type="line"/>
		</contour>
	</outline>
</glyph>
<glyph name="_104" format="2">
	<unicode hex="0168"/>
	<advance width="25"/>
	<outline>
		<component base="cap" yOffset="-40"/>
		<component base="cap" yOffset="744"/>
		<contour>
			<point x="0" y="88" type="line"/>
			<point x="0" y="872" type="line"/>
			<point x="256" y="872" type="line"/>
			<point x="256" y="88" type="line"/>
		</contour>
	</outline>
</glyph>
<glyph name="_105" format="2">
	<unicode hex="0169"/>
	<advance width="25"/>
	<outline>
		<component base="cap" yOffset="-50"/>
		<component base="cap" yOffset="744"/>
		<contour>
			<point x="0" y="78" type="line"/>
			<point x="0" y="872" type="line"/>
			<point x="256" y="872" type="line"/>
			<point x="256" y="78" type="line"/>
		</contour>
	</outline>
</glyph>
<glyph name="_106" format="2">
	<unicode hex="016A"/>
	<advance width="25"/>
	<outline>
		<component base="cap" yOffset="-60"/>
		<component base="cap" yOffset="744"/>
		<contour>
			<point x="0" y="68" type="line"/>
			<point x="0" y="872" type="line"/>
			<point x="256" y="872" type="line"/>
			<point x="256" y="68" type="line"/>
		</contour>
	</outline>
</glyph>
<glyph name="_110" format="2">
	<unicode hex="016E"/>
	<advance width="25"/>
	<outline>
		<component base="cap" yOffset="-100"/>
		<component base="cap" yOffset="744"/>
		<contour>
			<point x="0" y="28" type="line"/>
			<point x="0" y="872" type="line"/>
			<point x="256" y="872" type="line"/>
			<point x="256" y="28" type="line"/>
		</contour>
	</outline>
</glyph>
<glyph name="_111" format="2">
	<unicode hex="016F"/>
	<advance width="25"/>
	<outline>
		<component base="cap" yOffset="-110"/>
		<component base="cap" yOffset="744"/>
		<contour>
			<point x="0" y="18" type="line"/>
			<point x="0" y="872" type="line"/>
			<point x="256" y="872" type="line"/>
			<point x="256" y="18" type="line"/>
		</contour>
	</outline>
</glyph>
<glyph name="_112" format="2">
	<unicode hex="0170"/>
	<advance width="25"/>
	<outline>
		<component base="cap" yOffset="-120"/>
		<component base="cap" yOffset="744"/>
		<contour>
			<point x="0" y="8" type="line"/>
			<point x="0" y="872" type="line"/>
			<point x="256" y="872" type="line"/>
			<point x="256" y="8" type="line"/>
		</contour>
	</outline>
</glyph>
<glyph name="_113" format="2">
	<unicode hex="0171"/>
	<advance width="25"/>
	<outline>
		<component base="cap" yOffset="-130"/>
		<component base="cap" yOffset="744"/>
		<contour>
			<point x="0" y="-2" type="line"/>
			<point x="0" y="872" type="line"/>
			<point x="256" y="872" type="line"/>
			<point x="256" y="-2" type="line"/>
		</contour>
	</outline>
</glyph>
<glyph name="_122" format="2">
	<unicode hex="017A"/>
	<advance width="25"/>
	<outline>
		<component base="cap" yOffset="-220"/>
		<component base="cap" yOffset="744"/>
		<contour>
			<point x="0" y="-92" type="line"/>
			<point x="0" y="872" type="line"/>
			<point x="256" y="872" type="line"/>
			<point x="256" y="-92" type="line"/>
		</contour>
	</outline>
</glyph>
<glyph name="_127" format="2">
	<unicode hex="017F"/>
	<advance width="25"/>
	<outline>
		<component base="cap" yOffset="-270"/>
		<component base="cap" yOffset="744"/>
		<contour>
			<point x="0" y="-142" type="line"/>
			<point x="0" y="872" type="line"/>
			<point x="256" y="872" type="line"/>
			<point x="256" y="-142" type="line"/>
		</contour>
	</outline>
</glyph>
<glyph name="_11.clip" format="2">
	<advance width="25"/>
	<outline>
		<contour>
			<point x="0" y="975.25"/>
			<point x="24.75" y="1000"/>
			<point x="55" y="1000" type="curve" smooth="yes"/>
			<point x="201" y="1000" type="line"/>
			<point x="231.25" y="1000"/>
			<point x="256" y="975.25"/>
			<point x="256" y="945" type="curve" smooth="yes"/>
			<point x="256" y="945" type="line"/>
			<point x="256" y="914.75"/>
			<point x="231.25" y="890"/>
			<point x="201" y="890" type="curve" smooth="yes"/>
			<point x="55" y="890" type="line"/>
			<point x="24.75" y="890"/>
			<point x="0" y="914.75"/>
			<point x="0" y="945" type="curve" smooth="yes"/>
			<point x="0" y="945" type="line"/>
		</contour>
	</outline>
</glyph>
<glyph name="_12.clip" format="2">
	<advance width="25"/>
	<outline>
		<contour>
			<point x="0" y="973"/>
			<point x="26" y="1000"/>
			<point x="60" y="1000" type="curve" smooth="yes"/>
			<point x="196" y="1000" type="line"/>
			<point x="229" y="1000"/>
			<point x="256" y="973"/>
			<point x="256" y="940" type="curve" smooth="yes"/>
			<point x="256" y="940" type="line"/>
			<point x="256" y="907"/>
			<point x="229" y="880"/>
			<point x="196" y="880" type="curve" smooth="yes"/>
			<point x="60" y="880" type="line"/>
			<point x="26" y="880"/>
			<point x="0" y="907"/>
			<point x="0" y="940" type="curve" smooth="yes"/>
			<point x="0" y="940" type="line"/>
		</contour>
	</outline>
</glyph>
<glyph name="_14.clip" format="2">
	<advance width="25"/>
	<outline>
		<contour>
			<point x="0" y="968.5"/>
			<point x="31.5" y="1000"/>
			<point x="70" y="1000" type="curve" smooth="yes"/>
			<point x="186" y="1000" type="line"/>
			<point x="224.5" y="1000"/>
			<point x="256" y="968.5"/>
			<point x="256" y="930" type="curve" smooth="yes"/>
			<point x="256" y="930" type="line"/>
			<point x="256" y="891.5"/>
			<point x="224.5" y="860"/>
			<point x="186" y="860" type="curve" smooth="yes"/>
			<point x="70" y="860" type="line"/>
			<point x="31.5" y="860"/>
			<point x="0" y="891.5"/>
			<point x="0" y="930" type="curve" smooth="yes"/>
			<point x="0" y="930" type="line"/>
		</contour>
	</outline>
</glyph>
<glyph name="_17.clip" format="2">
	<advance width="25"/>
	<outline>
		<contour>
			<point x="0" y="961.75"/>
			<point x="38.25" y="1000"/>
			<point x="85" y="1000" type="curve" smooth="yes"/>
			<point x="171" y="1000" type="line"/>
			<point x="217.75" y="1000"/>
			<point x="256" y="961.75"/>
			<point x="256" y="915" type="curve" smooth="yes"/>
			<point x="256" y="915" type="line"/>
			<point x="256" y="868.25"/>
			<point x="217.75" y="830"/>
			<point x="171" y="830" type="curve" smooth="yes"/>
			<point x="85" y="830" type="line"/>
			<point x="38.25" y="830"/>
			<point x="0" y="868.25"/>
			<point x="0" y="915" type="curve" smooth="yes"/>
			<point x="0" y="915" type="line"/>
		</contour>
	</outline>
</glyph>
<glyph name="_2.clip" format="2">
	<advance width="25"/>
	<outline>
		<contour>
			<point x="0" y="995.5"/>
			<point x="4.5" y="1000"/>
			<point x="10" y="1000" type="curve" smooth="yes"/>
			<point x="246" y="1000" type="line"/>
			<point x="251.5" y="1000"/>
			<point x="256" y="995.5"/>
			<point x="256" y="990" type="curve" smooth="yes"/>
			<point x="256" y="990" type="line"/>
			<point x="256" y="984.5"/>
			<point x="251.5" y="980"/>
			<point x="246" y="980" type="curve" smooth="yes"/>
			<point x="10" y="980" type="line"/>
			<point x="4.5" y="980"/>
			<point x="0" y="984.5"/>
			<point x="0" y="990" type="curve" smooth="yes"/>
			<point x="0" y="990" type="line"/>
		</contour>
	</outline>
</glyph>
<glyph name="_21.clip" format="2">
	<advance width="25"/>
	<outline>
		<contour>
			<point x="0" y="952.75"/>
			<point x="47.25" y="1000"/>
			<point x="105" y="1000" type="curve" smooth="yes"/>
			<point x="151" y="1000" type="line"/>
			<point x="208.75" y="1000"/>
			<point x="256" y="952.75"/>
			<point x="256" y="895" type="curve" smooth="yes"/>
			<point x="256" y="895" type="line"/>
			<point x="256" y="837.25"/>
			<point x="208.75" y="790"/>
			<point x="151" y="790" type="curve" smooth="yes"/>
			<point x="105" y="790" type="line"/>
			<point x="47.25" y="790"/>
			<point x="0" y="837.25"/>
			<point x="0" y="895" type="curve" smooth="yes"/>
			<point x="0" y="895" type="line"/>
		</contour>
	</outline>
</glyph>
<glyph name="_4.clip" format="2">
	<advance width="25"/>
	<outline>
		<contour>
			<point x="0" y="991"/>
			<point x="9" y="1000"/>
			<point x="20" y="1000" type="curve" smooth="yes"/>
			<point x="236" y="1000" type="line"/>
			<point x="247" y="1000"/>
			<point x="256" y="991"/>
			<point x="256" y="980" type="curve" smooth="yes"/>
			<point x="256" y="980" type="line"/>
			<point x="256" y="969"/>
			<point x="247" y="960"/>
			<point x="236" y="960" type="curve" smooth="yes"/>
			<point x="20" y="960" type="line"/>
			<point x="9" y="960"/>
			<point x="0" y="969"/>
			<point x="0" y="980" type="curve" smooth="yes"/>
			<point x="0" y="980" type="line"/>
		</contour>
	</outline>
</glyph>
<glyph name="_5.clip" format="2">
	<advance width="25"/>
	<outline>
		<contour>
			<point x="0" y="988.75"/>
			<point x="11.25" y="1000"/>
			<point x="25" y="1000" type="curve" smooth="yes"/>
			<point x="231" y="1000" type="line"/>
			<point x="244.75" y="1000"/>
			<point x="256" y="988.75"/>
			<point x="256" y="975" type="curve" smooth="yes"/>
			<point x="256" y="975" type="line"/>
			<point x="256" y="961.25"/>
			<point x="244.75" y="950"/>
			<point x="231" y="950" type="curve" smooth="yes"/>
			<point x="25" y="950" type="line"/>
			<point x="11.25" y="950"/>
			<point x="0" y="961.25"/>
			<point x="0" y="975" type="curve" smooth="yes"/>
			<point x="0" y="975" type="line"/>
		</contour>
	</outline>
</glyph>
<glyph name="_6.clip" format="2">
	<advance width="25"/>
	<outline>
		<contour>
			<point x="0" y="986.5"/>
			<point x="13.5" y="1000"/>
			<point x="30" y="1000" type="curve" smooth="yes"/>
			<point x="226" y="1000" type="line"/>
			<point x="242.5" y="1000"/>
			<point x="256" y="986.5"/>
			<point x="256" y="970" type="curve" smooth="yes"/>
			<point x="256" y="970" type="line"/>
			<point x="256" y="953.5"/>
			<point x="242.5" y="940"/>
			<point x="226" y="940" type="curve" smooth="yes"/>
			<point x="30" y="940" type="line"/>
			<point x="13.5" y="940"/>
			<point x="0" y="953.5"/>
			<point x="0" y="970" type="curve" smooth="yes"/>
			<point x="0" y="970" type="line"/>
		</contour>
	</outline>
</glyph>
